<svg xmlns:xlink="http://www.w3.org/1999/xlink" xmlns="http://www.w3.org/2000/svg" font-family="Myriad Pro, Helvetica, Arial" font-size="12" data-jsgraph-version="v2.3.1" tabindex="0" width="400" height="300"><defs><clipPath id="_clipplot82aa4fb5-aec2-4ce3-ac02-0e433dbb815d" clipPathUnits="userSpaceOnUse"><rect y="0" x="51.34375" width="264.30859375" height="233"></rect></clipPath><marker viewBox="0 0 10 10" id="arrow82aa4fb5-aec2-4ce3-ac02-0e433dbb815d" refX="6" refY="5" markerUnits="strokeWidth" markerWidth="8" markerHeight="6" orient="auto"><path d="M 0 0 L 10 5 L 0 10 z"></path></marker><marker viewBox="0 0 6 8" id="horionzalsplit_82aa4fb5-aec2-4ce3-ac02-0e433dbb815d" refX="3" refY="4" markerUnits="strokeWidth" markerWidth="6" markerHeight="8"><line x1="0" y1="8" x2="6" y2="0" stroke="black"></line></marker><marker viewBox="0 0 8 6" id="verticalsplit_82aa4fb5-aec2-4ce3-ac02-0e433dbb815d" refX="4" refY="3" markerUnits="strokeWidth" markerWidth="8" markerHeight="6"><line x1="0" y1="0" x2="8" y2="6" stroke="black"></line></marker><marker viewBox="0 0 10 10" id="verticalline82aa4fb5-aec2-4ce3-ac02-0e433dbb815d" refX="0" refY="5" markerUnits="strokeWidth" markerWidth="20" markerHeight="10" orient="auto" stroke-width="1px"><path d="M 0 -10 L 0 10" stroke="black"></path></marker></defs><g><rect pointer-events="fill" fill="transparent" y="30" x="71.34375" width="264.30859375" height="233"></rect><text text-anchor="middle" y="20" x="200"></text><g transform="translate(20, 30)"><g><g><g><path shape-rendering="crispEdges" stroke="#f0f0f0" stroke-width="1" stroke-opacity="undefined" clip-path="url(#_clipplot82aa4fb5-aec2-4ce3-ac02-0e433dbb815d)" d=""></path><path shape-rendering="crispEdges" stroke="#f0f0f0" stroke-width="1" stroke-opacity="undefined" clip-path="url(#_clipplot82aa4fb5-aec2-4ce3-ac02-0e433dbb815d)" d=""></path><path shape-rendering="crispEdges" stroke="#f0f0f0" stroke-width="1" stroke-opacity="undefined" clip-path="url(#_clipplot82aa4fb5-aec2-4ce3-ac02-0e433dbb815d)" d=""></path></g><g><path shape-rendering="crispEdges" stroke="#f0f0f0" stroke-width="1" stroke-opacity="undefined" clip-path="url(#_clipplot82aa4fb5-aec2-4ce3-ac02-0e433dbb815d)" d="M 51.34375 0 L 51.34375 265M 134.32917974882258 0 L 134.32917974882258 265M 217.31460949764514 0 L 217.31460949764514 265M 300.3000392464677 0 L 300.3000392464677 265"></path><path shape-rendering="crispEdges" stroke="#f0f0f0" stroke-width="1" stroke-opacity="undefined" clip-path="url(#_clipplot82aa4fb5-aec2-4ce3-ac02-0e433dbb815d)" d="M 0 219.2941176470588 L 360 219.2941176470588M 0 164.47058823529412 L 360 164.47058823529412M 0 109.6470588235294 L 360 109.6470588235294M 0 54.823529411764724 L 360 54.823529411764724M 0 0 L 360 0"></path><path shape-rendering="crispEdges" stroke="#f0f0f0" stroke-width="1" stroke-opacity="undefined" clip-path="url(#_clipplot82aa4fb5-aec2-4ce3-ac02-0e433dbb815d)" d=""></path></g></g><g transform="translate(0 233)"><rect pointer-events="fill" fill="transparent"></rect><g><line y1="0" y2="-2" stroke="black" display="visible" x1="59.64229297488225" x2="59.64229297488225"></line><line y1="0" y2="-2" stroke="black" display="visible" x1="67.9408359497645" x2="67.9408359497645"></line><line y1="0" y2="-2" stroke="black" display="visible" x1="76.23937892464676" x2="76.23937892464676"></line><line y1="0" y2="-2" stroke="black" display="visible" x1="84.53792189952901" x2="84.53792189952901"></line><line y1="0" y2="-4" stroke="black" display="visible" x1="92.83646487441128" x2="92.83646487441128"></line><line y1="0" y2="-2" stroke="black" display="visible" x1="101.13500784929353" x2="101.13500784929353"></line><line y1="0" y2="-2" stroke="black" display="visible" x1="109.4335508241758" x2="109.4335508241758"></line><line y1="0" y2="-2" stroke="black" display="visible" x1="117.73209379905803" x2="117.73209379905803"></line><line y1="0" y2="-2" stroke="black" display="visible" x1="126.0306367739403" x2="126.0306367739403"></line><line y1="0" y2="-6" stroke="black" display="visible" x1="51.34375" x2="51.34375"></line><line y1="0" y2="-2" stroke="black" display="visible" x1="142.62772272370484" x2="142.62772272370484"></line><line y1="0" y2="-2" stroke="black" display="visible" x1="150.9262656985871" x2="150.9262656985871"></line><line y1="0" y2="-2" stroke="black" display="visible" x1="159.22480867346934" x2="159.22480867346934"></line><line y1="0" y2="-2" stroke="black" display="visible" x1="167.5233516483516" x2="167.5233516483516"></line><line y1="0" y2="-4" stroke="black" display="visible" x1="175.82189462323385" x2="175.82189462323385"></line><line y1="0" y2="-2" stroke="black" display="visible" x1="184.12043759811613" x2="184.12043759811613"></line><line y1="0" y2="-2" stroke="black" display="visible" x1="192.41898057299835" x2="192.41898057299835"></line><line y1="0" y2="-2" stroke="black" display="visible" x1="200.7175235478806" x2="200.7175235478806"></line><line y1="0" y2="-2" stroke="black" display="visible" x1="209.01606652276286" x2="209.01606652276286"></line><line y1="0" y2="-6" stroke="black" display="visible" x1="134.32917974882258" x2="134.32917974882258"></line><line y1="0" y2="-2" stroke="black" display="visible" x1="225.61315247252742" x2="225.61315247252742"></line><line y1="0" y2="-2" stroke="black" display="visible" x1="233.91169544740967" x2="233.91169544740967"></line><line y1="0" y2="-2" stroke="black" display="visible" x1="242.21023842229192" x2="242.21023842229192"></line><line y1="0" y2="-2" stroke="black" display="visible" x1="250.5087813971742" x2="250.5087813971742"></line><line y1="0" y2="-4" stroke="black" display="visible" x1="258.8073243720564" x2="258.8073243720564"></line><line y1="0" y2="-2" stroke="black" display="visible" x1="267.1058673469387" x2="267.1058673469387"></line><line y1="0" y2="-2" stroke="black" display="visible" x1="275.404410321821" x2="275.404410321821"></line><line y1="0" y2="-2" stroke="black" display="visible" x1="283.7029532967033" x2="283.7029532967033"></line><line y1="0" y2="-2" stroke="black" display="visible" x1="292.00149627158555" x2="292.00149627158555"></line><line y1="0" y2="-6" stroke="black" display="visible" x1="217.31460949764514" x2="217.31460949764514"></line><line y1="0" y2="-2" stroke="black" display="visible" x1="308.59858222135" x2="308.59858222135"></line><line y1="0" y2="-6" stroke="black" display="visible" x1="300.3000392464677" x2="300.3000392464677"></line></g><g><text y="8" text-anchor="middle" display="visible" x="51.34375" style="dominant-baseline: hanging;">-1</text><text y="8" text-anchor="middle" display="visible" x="134.32917974882258" style="dominant-baseline: hanging;">0</text><text y="8" text-anchor="middle" display="visible" x="217.31460949764514" style="dominant-baseline: hanging;">1</text><text y="8" text-anchor="middle" display="visible" x="300.3000392464677" style="dominant-baseline: hanging;">2</text></g><line stroke="black" shape-rendering="crispEdges" stroke-linecap="square" display="block" x1="51.34375" x2="315.65234375" y1="0" y2="0" marker-start="" marker-end=""></line><text text-anchor="middle" fill="undefined" style="display: initial;" x="183.498046875" y="22"><tspan style="dominant-baseline: hanging;">Voltage</tspan><tspan display="visible" dx="5" style="dominant-baseline: hanging;">(V)</tspan><tspan dx="6" display="none" style="dominant-baseline: hanging;"></tspan><tspan dy="-5" font-size="0.8em" display="none" style="dominant-baseline: hanging;"></tspan></text><g></g></g><g transform="translate( 51.34375 0 )"><rect pointer-events="fill" fill="transparent"></rect><g><line x1="0" x2="2" stroke="rgba( 150, 10, 10, 0.9 )" display="visible" y1="230.25882352941176" y2="230.25882352941176"></line><line x1="0" x2="2" stroke="rgba( 150, 10, 10, 0.9 )" display="visible" y1="224.7764705882353" y2="224.7764705882353"></line><line x1="0" x2="2" stroke="rgba( 150, 10, 10, 0.9 )" display="visible" y1="213.81176470588235" y2="213.81176470588235"></line><line x1="0" x2="2" stroke="rgba( 150, 10, 10, 0.9 )" display="visible" y1="208.32941176470587" y2="208.32941176470587"></line><line x1="0" x2="2" stroke="rgba( 150, 10, 10, 0.9 )" display="visible" y1="202.8470588235294" y2="202.8470588235294"></line><line x1="0" x2="2" stroke="rgba( 150, 10, 10, 0.9 )" display="visible" y1="197.36470588235295" y2="197.36470588235295"></line><line x1="0" x2="4" stroke="rgba( 150, 10, 10, 0.9 )" display="visible" y1="191.88235294117646" y2="191.88235294117646"></line><line x1="0" x2="2" stroke="rgba( 150, 10, 10, 0.9 )" display="visible" y1="186.4" y2="186.4"></line><line x1="0" x2="2" stroke="rgba( 150, 10, 10, 0.9 )" display="visible" y1="180.91764705882352" y2="180.91764705882352"></line><line x1="0" x2="2" stroke="rgba( 150, 10, 10, 0.9 )" display="visible" y1="175.43529411764706" y2="175.43529411764706"></line><line x1="0" x2="2" stroke="rgba( 150, 10, 10, 0.9 )" display="visible" y1="169.9529411764706" y2="169.9529411764706"></line><line x1="0" x2="6" stroke="red" display="visible" y1="219.2941176470588" y2="219.2941176470588"></line><line x1="0" x2="2" stroke="rgba( 150, 10, 10, 0.9 )" display="visible" y1="158.98823529411766" y2="158.98823529411766"></line><line x1="0" x2="2" stroke="rgba( 150, 10, 10, 0.9 )" display="visible" y1="153.50588235294117" y2="153.50588235294117"></line><line x1="0" x2="2" stroke="rgba( 150, 10, 10, 0.9 )" display="visible" y1="148.0235294117647" y2="148.0235294117647"></line><line x1="0" x2="2" stroke="rgba( 150, 10, 10, 0.9 )" display="visible" y1="142.54117647058823" y2="142.54117647058823"></line><line x1="0" x2="4" stroke="rgba( 150, 10, 10, 0.9 )" display="visible" y1="137.05882352941177" y2="137.05882352941177"></line><line x1="0" x2="2" stroke="rgba( 150, 10, 10, 0.9 )" display="visible" y1="131.57647058823528" y2="131.57647058823528"></line><line x1="0" x2="2" stroke="rgba( 150, 10, 10, 0.9 )" display="visible" y1="126.09411764705882" y2="126.09411764705882"></line><line x1="0" x2="2" stroke="rgba( 150, 10, 10, 0.9 )" display="visible" y1="120.61176470588235" y2="120.61176470588235"></line><line x1="0" x2="2" stroke="rgba( 150, 10, 10, 0.9 )" display="visible" y1="115.12941176470589" y2="115.12941176470589"></line><line x1="0" x2="6" stroke="red" display="visible" y1="164.47058823529412" y2="164.47058823529412"></line><line x1="0" x2="2" stroke="rgba( 150, 10, 10, 0.9 )" display="visible" y1="104.16470588235293" y2="104.16470588235293"></line><line x1="0" x2="2" stroke="rgba( 150, 10, 10, 0.9 )" display="visible" y1="98.68235294117648" y2="98.68235294117648"></line><line x1="0" x2="2" stroke="rgba( 150, 10, 10, 0.9 )" display="visible" y1="93.20000000000002" y2="93.20000000000002"></line><line x1="0" x2="2" stroke="rgba( 150, 10, 10, 0.9 )" display="visible" y1="87.71764705882353" y2="87.71764705882353"></line><line x1="0" x2="4" stroke="rgba( 150, 10, 10, 0.9 )" display="visible" y1="82.23529411764704" y2="82.23529411764704"></line><line x1="0" x2="2" stroke="rgba( 150, 10, 10, 0.9 )" display="visible" y1="76.75294117647061" y2="76.75294117647061"></line><line x1="0" x2="2" stroke="rgba( 150, 10, 10, 0.9 )" display="visible" y1="71.27058823529413" y2="71.27058823529413"></line><line x1="0" x2="2" stroke="rgba( 150, 10, 10, 0.9 )" display="visible" y1="65.78823529411764" y2="65.78823529411764"></line><line x1="0" x2="2" stroke="rgba( 150, 10, 10, 0.9 )" display="visible" y1="60.30588235294118" y2="60.30588235294118"></line><line x1="0" x2="6" stroke="red" display="visible" y1="109.6470588235294" y2="109.6470588235294"></line><line x1="0" x2="2" stroke="rgba( 150, 10, 10, 0.9 )" display="visible" y1="49.34117647058824" y2="49.34117647058824"></line><line x1="0" x2="2" stroke="rgba( 150, 10, 10, 0.9 )" display="visible" y1="43.85882352941175" y2="43.85882352941175"></line><line x1="0" x2="2" stroke="rgba( 150, 10, 10, 0.9 )" display="visible" y1="38.37647058823529" y2="38.37647058823529"></line><line x1="0" x2="2" stroke="rgba( 150, 10, 10, 0.9 )" display="visible" y1="32.894117647058835" y2="32.894117647058835"></line><line x1="0" x2="4" stroke="rgba( 150, 10, 10, 0.9 )" display="visible" y1="27.411764705882348" y2="27.411764705882348"></line><line x1="0" x2="2" stroke="rgba( 150, 10, 10, 0.9 )" display="visible" y1="21.92941176470589" y2="21.92941176470589"></line><line x1="0" x2="2" stroke="rgba( 150, 10, 10, 0.9 )" display="visible" y1="16.447058823529403" y2="16.447058823529403"></line><line x1="0" x2="2" stroke="rgba( 150, 10, 10, 0.9 )" display="visible" y1="10.964705882352945" y2="10.964705882352945"></line><line x1="0" x2="2" stroke="rgba( 150, 10, 10, 0.9 )" display="visible" y1="5.482352941176487" y2="5.482352941176487"></line><line x1="0" x2="6" stroke="red" display="visible" y1="54.823529411764724" y2="54.823529411764724"></line><line x1="0" x2="6" stroke="red" display="visible" y1="0" y2="0"></line></g><g><text x="-5" fill="#880000" text-anchor="end" display="visible" y="219.2941176470588" style="dominant-baseline: central;">-20</text><text x="-5" fill="#880000" text-anchor="end" display="visible" y="164.47058823529412" style="dominant-baseline: central;">0</text><text x="-5" fill="#880000" text-anchor="end" display="visible" y="109.6470588235294" style="dominant-baseline: central;">20</text><text x="-5" fill="#880000" text-anchor="end" display="visible" y="54.823529411764724" style="dominant-baseline: central;">40</text><text x="-5" fill="#880000" text-anchor="end" display="visible" y="0" style="dominant-baseline: central;">60</text></g><line stroke="red" shape-rendering="crispEdges" stroke-linecap="square" display="block" y1="233" y2="0" x1="0" x2="0" marker-start="" marker-end=""></line><text text-anchor="middle" transform="translate(-39.34375, 116.5) rotate(-90)" fill="red" dominant-baseline="auto"><tspan>Current density</tspan><tspan display="visible" dx="5">(mA cm<tspan dy="-5" font-size="0.7em">-2</tspan><tspan dy="5" font-size="1em">)</tspan></tspan><tspan dx="6" display="none"></tspan><tspan dy="-5" font-size="0.8em" display="none"></tspan></text><g></g></g><g transform="translate( 315.65234375 0 )"><rect pointer-events="fill" fill="transparent"></rect><g><line x1="0" x2="-2" stroke="black" display="visible" y1="224.92238222516366" y2="224.92238222516366"></line><line x1="0" x2="-4" stroke="black" display="visible" y1="214.84708322685208" y2="214.84708322685208"></line><line x1="0" x2="-2" stroke="black" display="visible" y1="204.77178422854047" y2="204.77178422854047"></line><line x1="0" x2="-2" stroke="black" display="visible" y1="194.6964852302289" y2="194.6964852302289"></line><line x1="0" x2="-2" stroke="black" display="visible" y1="184.6211862319173" y2="184.6211862319173"></line><line x1="0" x2="-2" stroke="black" display="visible" y1="174.54588723360573" y2="174.54588723360573"></line><line x1="0" x2="-2" stroke="black" display="visible" y1="154.39528923698253" y2="154.39528923698253"></line><line x1="0" x2="-2" stroke="black" display="visible" y1="144.31999023867093" y2="144.31999023867093"></line><line x1="0" x2="-2" stroke="black" display="visible" y1="134.24469124035934" y2="134.24469124035934"></line><line x1="0" x2="-2" stroke="black" display="visible" y1="124.16939224204776" y2="124.16939224204776"></line><line x1="0" x2="-4" stroke="black" display="visible" y1="114.09409324373618" y2="114.09409324373618"></line><line x1="0" x2="-2" stroke="black" display="visible" y1="104.01879424542457" y2="104.01879424542457"></line><line x1="0" x2="-2" stroke="black" display="visible" y1="93.94349524711299" y2="93.94349524711299"></line><line x1="0" x2="-2" stroke="black" display="visible" y1="83.86819624880138" y2="83.86819624880138"></line><line x1="0" x2="-2" stroke="black" display="visible" y1="73.7928972504898" y2="73.7928972504898"></line><line x1="0" x2="-6" stroke="black" display="visible" y1="164.47058823529414" y2="164.47058823529414"></line><line x1="0" x2="-2" stroke="black" display="visible" y1="53.64229925386664" y2="53.64229925386664"></line><line x1="0" x2="-2" stroke="black" display="visible" y1="43.56700025555503" y2="43.56700025555503"></line><line x1="0" x2="-2" stroke="black" display="visible" y1="33.49170125724345" y2="33.49170125724345"></line><line x1="0" x2="-2" stroke="black" display="visible" y1="23.416402258931868" y2="23.416402258931868"></line><line x1="0" x2="-4" stroke="black" display="visible" y1="13.341103260620258" y2="13.341103260620258"></line><line x1="0" x2="-2" stroke="black" display="visible" y1="3.265804262308677" y2="3.265804262308677"></line><line x1="0" x2="-6" stroke="black" display="visible" y1="63.71759825217822" y2="63.71759825217822"></line></g><g><text x="2" text-anchor="start" display="visible" y="164.47058823529414" style="dominant-baseline: central;">0</text><text x="2" text-anchor="start" display="visible" y="63.71759825217822" style="dominant-baseline: central;">20</text></g><line stroke="black" shape-rendering="crispEdges" stroke-linecap="square" display="block" y1="233" y2="0" x1="0" x2="0" marker-start="" marker-end=""></line><text text-anchor="middle" transform="translate(32.34765625, 116.5) rotate(-90)" fill="undefined" dominant-baseline="auto"><tspan>Power density</tspan><tspan display="visible" dx="5">(mW cm<tspan dy="-5" font-size="0.7em">-2</tspan><tspan dy="5" font-size="1em">)</tspan></tspan><tspan dx="6" display="none"></tspan><tspan dy="-5" font-size="0.8em" display="none"></tspan></text><g></g></g></g><g><g data-layer="1"><g><g><g><path stroke="red" stroke-width="2" fill="none" d="M 51.2 220.60000000000002 L 55.400000000000006 220.60000000000002 L 59.6 220.60000000000002 L 63.6 220.60000000000002 L 67.8 220.60000000000002 L 72 220.60000000000002 L 76.2 220.60000000000002 L 80.2 220.60000000000002 L 84.4 220.60000000000002 L 88.60000000000001 220.60000000000002 L 92.80000000000001 220.60000000000002 L 96.80000000000001 220.60000000000002 L 101 220.60000000000002 L 105.2 220.60000000000002 L 109.4 220.60000000000002 L 113.4 220.60000000000002 L 117.60000000000001 220.4 L 121.80000000000001 220.4 L 126 220.4 L 130 220.4 L 134.20000000000002 220.20000000000002 L 138.4 220.20000000000002 L 142.6 220 L 146.6 219.8 L 150.8 219.60000000000002 L 155 219.4 L 159.20000000000002 219 L 163.20000000000002 218.4 L 167.4 217.60000000000002 L 171.60000000000002 216.60000000000002 L 175.8 215.20000000000002 L 179.8 213.20000000000002 L 184 210.60000000000002 L 188.20000000000002 207.20000000000002 L 192.4 202.60000000000002 L 196.4 196.20000000000002 L 200.60000000000002 187.8 L 204.8 176.20000000000002 L 209 160.8 L 213 140 L 217.20000000000002 112 L 221.4 74.2 L 225.60000000000002 23 L 227 0 "></path></g><circle fill="black" r="3" display="none"></circle><g></g><rect fill="white"></rect><text></text><g><g data-shapeid="0" transform="translate(51.2, 220.60000000000002)"><rect r="3" stroke="rgb( 200, 0, 0 )" fill="white" strokeWidth="1" x="-2" y="-2" width="4" height="4"></rect></g><g data-shapeid="1" transform="translate(55.400000000000006, 220.60000000000002)"><rect r="3" stroke="rgb( 200, 0, 0 )" fill="white" strokeWidth="1" x="-2" y="-2" width="4" height="4"></rect></g><g data-shapeid="2" transform="translate(59.6, 220.60000000000002)"><rect r="3" stroke="rgb( 200, 0, 0 )" fill="white" strokeWidth="1" x="-2" y="-2" width="4" height="4"></rect></g><g data-shapeid="3" transform="translate(63.6, 220.60000000000002)"><rect r="3" stroke="rgb( 200, 0, 0 )" fill="white" strokeWidth="1" x="-2" y="-2" width="4" height="4"></rect></g><g data-shapeid="4" transform="translate(67.8, 220.60000000000002)"><rect r="3" stroke="rgb( 200, 0, 0 )" fill="white" strokeWidth="1" x="-2" y="-2" width="4" height="4"></rect></g><g data-shapeid="5" transform="translate(72, 220.60000000000002)"><rect r="3" stroke="rgb( 200, 0, 0 )" fill="white" strokeWidth="1" x="-2" y="-2" width="4" height="4"></rect></g><g data-shapeid="6" transform="translate(76.2, 220.60000000000002)"><rect r="3" stroke="rgb( 200, 0, 0 )" fill="white" strokeWidth="1" x="-2" y="-2" width="4" height="4"></rect></g><g data-shapeid="7" transform="translate(80.2, 220.60000000000002)"><rect r="3" stroke="rgb( 200, 0, 0 )" fill="white" strokeWidth="1" x="-2" y="-2" width="4" height="4"></rect></g><g data-shapeid="8" transform="translate(84.4, 220.60000000000002)"><rect r="3" stroke="rgb( 200, 0, 0 )" fill="white" strokeWidth="1" x="-2" y="-2" width="4" height="4"></rect></g><g data-shapeid="9" transform="translate(88.60000000000001, 220.60000000000002)"><rect r="3" stroke="rgb( 200, 0, 0 )" fill="white" strokeWidth="1" x="-2" y="-2" width="4" height="4"></rect></g><g data-shapeid="10" transform="translate(92.80000000000001, 220.60000000000002)"><rect r="3" stroke="rgb( 200, 0, 0 )" fill="white" strokeWidth="1" x="-2" y="-2" width="4" height="4"></rect></g><g data-shapeid="11" transform="translate(96.80000000000001, 220.60000000000002)"><rect r="3" stroke="rgb( 200, 0, 0 )" fill="white" strokeWidth="1" x="-2" y="-2" width="4" height="4"></rect></g><g data-shapeid="12" transform="translate(101, 220.60000000000002)"><rect r="3" stroke="rgb( 200, 0, 0 )" fill="white" strokeWidth="1" x="-2" y="-2" width="4" height="4"></rect></g><g data-shapeid="13" transform="translate(105.2, 220.60000000000002)"><rect r="3" stroke="rgb( 200, 0, 0 )" fill="white" strokeWidth="1" x="-2" y="-2" width="4" height="4"></rect></g><g data-shapeid="14" transform="translate(109.4, 220.60000000000002)"><rect r="3" stroke="rgb( 200, 0, 0 )" fill="white" strokeWidth="1" x="-2" y="-2" width="4" height="4"></rect></g><g data-shapeid="15" transform="translate(113.4, 220.60000000000002)"><rect r="3" stroke="rgb( 200, 0, 0 )" fill="white" strokeWidth="1" x="-2" y="-2" width="4" height="4"></rect></g><g data-shapeid="16" transform="translate(117.60000000000001, 220.4)"><rect r="3" stroke="rgb( 200, 0, 0 )" fill="white" strokeWidth="1" x="-2" y="-2" width="4" height="4"></rect></g><g data-shapeid="17" transform="translate(121.80000000000001, 220.4)"><rect r="3" stroke="rgb( 200, 0, 0 )" fill="white" strokeWidth="1" x="-2" y="-2" width="4" height="4"></rect></g><g data-shapeid="18" transform="translate(126, 220.4)"><rect r="3" stroke="rgb( 200, 0, 0 )" fill="white" strokeWidth="1" x="-2" y="-2" width="4" height="4"></rect></g><g data-shapeid="19" transform="translate(130, 220.4)"><rect r="3" stroke="rgb( 200, 0, 0 )" fill="white" strokeWidth="1" x="-2" y="-2" width="4" height="4"></rect></g><g data-shapeid="20" transform="translate(134.20000000000002, 220.20000000000002)"><rect r="3" stroke="rgb( 200, 0, 0 )" fill="white" strokeWidth="1" x="-2" y="-2" width="4" height="4"></rect></g><g data-shapeid="21" transform="translate(138.4, 220.20000000000002)"><rect r="3" stroke="rgb( 200, 0, 0 )" fill="white" strokeWidth="1" x="-2" y="-2" width="4" height="4"></rect></g><g data-shapeid="22" transform="translate(142.6, 220)"><rect r="3" stroke="rgb( 200, 0, 0 )" fill="white" strokeWidth="1" x="-2" y="-2" width="4" height="4"></rect></g><g data-shapeid="23" transform="translate(146.6, 219.8)"><rect r="3" stroke="rgb( 200, 0, 0 )" fill="white" strokeWidth="1" x="-2" y="-2" width="4" height="4"></rect></g><g data-shapeid="24" transform="translate(150.8, 219.60000000000002)"><rect r="3" stroke="rgb( 200, 0, 0 )" fill="white" strokeWidth="1" x="-2" y="-2" width="4" height="4"></rect></g><g data-shapeid="25" transform="translate(155, 219.4)"><rect r="3" stroke="rgb( 200, 0, 0 )" fill="white" strokeWidth="1" x="-2" y="-2" width="4" height="4"></rect></g><g data-shapeid="26" transform="translate(159.20000000000002, 219)"><rect r="3" stroke="rgb( 200, 0, 0 )" fill="white" strokeWidth="1" x="-2" y="-2" width="4" height="4"></rect></g><g data-shapeid="27" transform="translate(163.20000000000002, 218.4)"><rect r="3" stroke="rgb( 200, 0, 0 )" fill="white" strokeWidth="1" x="-2" y="-2" width="4" height="4"></rect></g><g data-shapeid="28" transform="translate(167.4, 217.60000000000002)"><rect r="3" stroke="rgb( 200, 0, 0 )" fill="white" strokeWidth="1" x="-2" y="-2" width="4" height="4"></rect></g><g data-shapeid="29" transform="translate(171.60000000000002, 216.60000000000002)"><rect r="3" stroke="rgb( 200, 0, 0 )" fill="white" strokeWidth="1" x="-2" y="-2" width="4" height="4"></rect></g><g data-shapeid="30" transform="translate(175.8, 215.20000000000002)"><rect r="3" stroke="rgb( 200, 0, 0 )" fill="white" strokeWidth="1" x="-2" y="-2" width="4" height="4"></rect></g><g data-shapeid="31" transform="translate(179.8, 213.20000000000002)"><rect r="3" stroke="rgb( 200, 0, 0 )" fill="white" strokeWidth="1" x="-2" y="-2" width="4" height="4"></rect></g><g data-shapeid="32" transform="translate(184, 210.60000000000002)"><rect r="3" stroke="rgb( 200, 0, 0 )" fill="white" strokeWidth="1" x="-2" y="-2" width="4" height="4"></rect></g><g data-shapeid="33" transform="translate(188.20000000000002, 207.20000000000002)"><rect r="3" stroke="rgb( 200, 0, 0 )" fill="white" strokeWidth="1" x="-2" y="-2" width="4" height="4"></rect></g><g data-shapeid="34" transform="translate(192.4, 202.60000000000002)"><rect r="3" stroke="rgb( 200, 0, 0 )" fill="white" strokeWidth="1" x="-2" y="-2" width="4" height="4"></rect></g><g data-shapeid="35" transform="translate(196.4, 196.20000000000002)"><rect r="3" stroke="rgb( 200, 0, 0 )" fill="white" strokeWidth="1" x="-2" y="-2" width="4" height="4"></rect></g><g data-shapeid="36" transform="translate(200.60000000000002, 187.8)"><rect r="3" stroke="rgb( 200, 0, 0 )" fill="white" strokeWidth="1" x="-2" y="-2" width="4" height="4"></rect></g><g data-shapeid="37" transform="translate(204.8, 176.20000000000002)"><rect r="3" stroke="rgb( 200, 0, 0 )" fill="white" strokeWidth="1" x="-2" y="-2" width="4" height="4"></rect></g><g data-shapeid="38" transform="translate(209, 160.8)"><rect r="3" stroke="rgb( 200, 0, 0 )" fill="white" strokeWidth="1" x="-2" y="-2" width="4" height="4"></rect></g><g data-shapeid="39" transform="translate(213, 140)"><rect r="3" stroke="rgb( 200, 0, 0 )" fill="white" strokeWidth="1" x="-2" y="-2" width="4" height="4"></rect></g><g data-shapeid="40" transform="translate(217.20000000000002, 112)"><rect r="3" stroke="rgb( 200, 0, 0 )" fill="white" strokeWidth="1" x="-2" y="-2" width="4" height="4"></rect></g><g data-shapeid="41" transform="translate(221.4, 74.2)"><rect r="3" stroke="rgb( 200, 0, 0 )" fill="white" strokeWidth="1" x="-2" y="-2" width="4" height="4"></rect></g><g data-shapeid="42" transform="translate(225.60000000000002, 23)"><rect r="3" stroke="rgb( 200, 0, 0 )" fill="white" strokeWidth="1" x="-2" y="-2" width="4" height="4"></rect></g></g></g><g><g></g><g><path stroke="black" stroke-width="1" fill="none" d="M 51.2 61.2 L 55.400000000000006 66.2 L 59.6 71.4 L 63.6 76.60000000000001 L 67.8 81.80000000000001 L 72 87 L 76.2 92 L 80.2 97.2 L 84.4 102.4 L 88.60000000000001 107.60000000000001 L 92.80000000000001 112.80000000000001 L 96.80000000000001 118 L 101 123 L 105.2 128.20000000000002 L 109.4 133.4 L 113.4 138.6 L 117.60000000000001 143.8 L 121.80000000000001 149 L 126 154 L 130 159.20000000000002 L 134.20000000000002 164.4 L 138.4 169.60000000000002 L 142.6 174.60000000000002 L 146.6 179.60000000000002 L 150.8 184.60000000000002 L 155 189.60000000000002 L 159.20000000000002 194.4 L 163.20000000000002 199 L 167.4 203.4 L 171.60000000000002 207.4 L 175.8 211 L 179.8 213.8 L 184 215.4 L 188.20000000000002 215.60000000000002 L 192.4 213.4 L 196.4 208.20000000000002 L 200.60000000000002 198.8 L 204.8 183 L 209 158.60000000000002 L 213 122 L 217.20000000000002 68 L 220.8 0 "></path></g><circle fill="black" r="3" display="none"></circle><g></g><rect fill="white"></rect><text></text></g></g><g></g></g></g><line stroke="black" shape-rendering="crispEdges" stroke-linecap="square" display="block" x1="51.34375" x2="315.65234375" y1="0" y2="0"></line><line stroke="black" shape-rendering="crispEdges" stroke-linecap="square" display="none"></line><line stroke="black" shape-rendering="crispEdges" stroke-linecap="square" display="none"></line><line stroke="black" shape-rendering="crispEdges" stroke-linecap="square" display="none"></line></g></g></svg>
